HIERARCHY
ROOT Hips
{
	OFFSET	0.00	0.00	0.00
	CHANNELS 6 Xposition Yposition Zposition Zrotation Xrotation Yrotation
	JOINT LeftUpLeg
	{
		OFFSET	 0.126116	-0.014019	-0.065224
		CHANNELS 3 Zrotation Xrotation Yrotation
		JOINT LeftLeg
		{
			OFFSET	 0.000000	 0.000000	 0.569914
			CHANNELS 3 Zrotation Xrotation Yrotation
			JOINT LeftFoot
			{
				OFFSET	 0.000000	 0.000000	 0.544423
				CHANNELS 3 Zrotation Xrotation Yrotation
				JOINT LeftToeBase
				{
					OFFSET	 0.000000	 0.000000	 0.207117
					CHANNELS 3 Zrotation Xrotation Yrotation
					End Site
					{
						OFFSET	 0.000000	 0.000000	 0.207117
					}
				}
			}
		}
	}
	JOINT RightUpLeg
	{
		OFFSET	-0.124023	-0.008373	-0.065224
		CHANNELS 3 Zrotation Xrotation Yrotation
		JOINT RightLeg
		{
			OFFSET	 0.000000	 0.000000	 0.570047
			CHANNELS 3 Zrotation Xrotation Yrotation
			JOINT RightFoot
			{
				OFFSET	 0.000000	 0.000000	 0.544354
				CHANNELS 3 Zrotation Xrotation Yrotation
				JOINT RightToeBase
				{
					OFFSET	 0.000000	 0.000000	 0.207540
					CHANNELS 3 Zrotation Xrotation Yrotation
					End Site
					{
						OFFSET	 0.000000	 0.000000	 0.207540
					}
				}
			}
		}
	}
	JOINT Spine
	{
		OFFSET	 0.000184	-0.007763	 0.117403
		CHANNELS 3 Zrotation Xrotation Yrotation
		JOINT Spine1
		{
			OFFSET	 0.000000	 0.000000	 0.137269
			CHANNELS 3 Zrotation Xrotation Yrotation
			JOINT Spine2
			{
				OFFSET	 0.000000	 0.000000	 0.156879
				CHANNELS 3 Zrotation Xrotation Yrotation
				JOINT LeftShoulder
				{
					OFFSET	 0.080501	-0.002496	 0.160144
					CHANNELS 3 Zrotation Xrotation Yrotation
					JOINT LeftArm
					{
						OFFSET	 0.000000	 0.000000	 0.164363
						CHANNELS 3 Zrotation Xrotation Yrotation
						JOINT LeftForeArm
						{
							OFFSET	 0.000000	 0.000000	 0.364576
							CHANNELS 3 Zrotation Xrotation Yrotation
							JOINT LeftHand
							{
								OFFSET	 0.000000	 0.000000	 0.360812
								CHANNELS 3 Zrotation Xrotation Yrotation
								JOINT LeftHandIndex1
								{
									OFFSET	 0.000000	 0.000000	 0.086006
									CHANNELS 3 Zrotation Xrotation Yrotation
									JOINT LeftHandIndex2
									{
										OFFSET	 0.000000	 0.000000	 0.047236
										CHANNELS 3 Zrotation Xrotation Yrotation
										JOINT LeftHandIndex3
										{
											OFFSET	-0.004284	-0.000551	 0.038166
											CHANNELS 3 Zrotation Xrotation Yrotation
											End Site
											{
												OFFSET	-0.004284	-0.000551	 0.038166
											}
										}
									}
								}
							}
						}
					}
				}
				JOINT Neck
				{
					OFFSET	 0.000000	 0.000000	 0.176489
					CHANNELS 3 Zrotation Xrotation Yrotation
					JOINT Head
					{
						OFFSET	 0.000000	-0.001747	 0.077940
						CHANNELS 3 Zrotation Xrotation Yrotation
						End Site
						{
							OFFSET	 0.000000	-0.001747	 0.077940
						}
					}
				}
				JOINT RightShoulder
				{
					OFFSET	-0.080363	 0.000306	 0.159706
					CHANNELS 3 Zrotation Xrotation Yrotation
					JOINT RightArm
					{
						OFFSET	 0.000000	 0.000000	 0.164196
						CHANNELS 3 Zrotation Xrotation Yrotation
						JOINT RightForeArm
						{
							OFFSET	 0.000000	 0.000000	 0.365611
							CHANNELS 3 Zrotation Xrotation Yrotation
							JOINT RightHand
							{
								OFFSET	 0.000000	 0.000000	 0.360648
								CHANNELS 3 Zrotation Xrotation Yrotation
								JOINT RightHandIndex1
								{
									OFFSET	 0.000000	 0.000000	 0.069977
									CHANNELS 3 Zrotation Xrotation Yrotation
									JOINT RightHandIndex2
									{
										OFFSET	 0.000000	 0.000000	 0.052305
										CHANNELS 3 Zrotation Xrotation Yrotation
										JOINT RightHandIndex3
										{
											OFFSET	 0.009002	-0.000782	 0.042196
											CHANNELS 3 Zrotation Xrotation Yrotation
											End Site
											{
												OFFSET	 0.009002	-0.000782	 0.042196
											}
										}
									}
								}
							}
						}
					}
				}
			}
		}
	}
}
MOTION
Frames:    4
Frame Time: 0.03333334
-3.090164	-13.884450	 0.283319	-32.870830	 0.352726	 0.570613	 1.986897	-33.467990	 172.313100	-6.486866	-69.002010	-7.168568	 177.329100	 86.563730	 179.686400	-2.319858	 37.941980	-0.221773	-0.464842	-35.080880	-177.343400	 1.966408	-73.893170	 4.392980	-178.171300	 85.226360	 179.725600	 2.403138	 22.436120	-0.124293	-1.523364	 14.242190	 1.565575	-1.960133	 7.821248	-1.845950	-2.116974	 4.805011	-0.051314	-142.806100	 89.578030	-125.624600	 49.982060	 61.135510	-77.867900	-13.134770	-2.229040	-20.273780	 1.103227	 2.036709	-5.362278	-3.812334	 37.924440	-2.927599	-2.450526	 36.184240	 0.754587	-1.378229	 35.397820	-2.634230	 1.495271	 2.616457	-3.160041	-0.006080	 7.867775	 2.824513	 93.894290	 85.924220	 171.578200	-54.133810	 70.374410	 73.367290	-6.359621	-12.405860	 21.333700	-27.850390	 1.001897	 9.531510	 6.437017	 35.671460	-0.771858	 2.830251	 35.756010	-7.813440	-2.350882	 35.473990	 5.254307
-3.085737	-13.883230	 0.300072	-34.169530	 2.491638	 0.382351	 2.406004	-34.428450	 172.538100	-5.173592	-66.491630	-5.407917	 176.396200	 87.515400	-178.969300	-2.340864	 35.622350	-0.163937	 0.278692	-35.892280	-177.556000	 1.472375	-70.382010	 4.338476	-177.207600	 85.933940	 179.032800	 2.405942	 20.568130	-0.161805	-1.565313	 14.309610	 1.406500	-1.902700	 7.466169	-1.824178	-1.883526	 4.446190	-0.051566	-127.850300	 89.449280	-140.563800	 47.450900	 61.160290	-76.239300	-13.122880	-2.363623	-19.173550	 1.710236	 2.011192	-5.356434	-3.812334	 37.924440	-2.927599	-2.450526	 36.184240	 0.754587	-1.378229	 35.397820	-2.634230	 1.746956	 2.299737	-3.081060	 0.203505	 7.582967	 3.541594	 94.188710	 86.003550	 171.112500	-54.033680	 70.824220	 73.124560	-6.558375	-12.218080	 20.557360	-28.311730	 0.997407	 9.522029	 6.437017	 35.671460	-0.771858	 2.830251	 35.756010	-7.813440	-2.350882	 35.473990	 5.254307
-3.080640	-13.882250	 0.316789	-35.478540	 4.656916	-0.057227	 2.932542	-35.363910	 173.089600	-4.345696	-64.101130	-4.078196	 173.757200	 88.543300	-175.938900	-2.355971	 33.662230	-0.117111	 1.127970	-37.095980	-177.293500	 0.430456	-67.823230	 3.851490	-175.211100	 87.043950	 177.038900	 2.406673	 19.834250	-0.176395	-1.596142	 14.329820	 1.440533	-1.838888	 7.168357	-1.711885	-1.643795	 4.110430	-0.049828	-121.145000	 89.352290	-147.308000	 44.887210	 60.935210	-74.798600	-13.414000	-2.338070	-18.122170	 1.865926	 1.990443	-5.353313	-3.812334	 37.924440	-2.927599	-2.450526	 36.184240	 0.754587	-1.378229	 35.397820	-2.634230	 1.997696	 2.055083	-2.936850	 0.431838	 7.281161	 4.355814	 94.396870	 86.056680	 170.787200	-53.978780	 71.481440	 72.534290	-6.483391	-11.849100	 19.708680	-28.486480	 0.991846	 9.512445	 6.437017	 35.671460	-0.771858	 2.830251	 35.756010	-7.813440	-2.350882	 35.473990	 5.254307
-3.076827	-13.882410	 0.329294	-36.694080	 6.082677	-0.489358	 3.674848	-35.613920	 173.681900	-4.197982	-62.124590	-3.294176	 164.991700	 89.370680	-166.918900	-2.364697	 32.372740	-0.087195	 1.786110	-38.073010	-176.822000	-1.101329	-66.148380	 2.804996	-171.977600	 88.098430	 173.446900	 2.407091	 19.292040	-0.187118	-1.519252	 14.713910	 1.653261	-1.698026	 7.135985	-1.576439	-1.450198	 3.907678	-0.046529	-118.721100	 89.304790	-149.741100	 42.927470	 60.802610	-74.297020	-13.560570	-2.414643	-17.176450	 2.356175	 1.966948	-5.346883	-3.812334	 37.924440	-2.927599	-2.450526	 36.184240	 0.754587	-1.378229	 35.397820	-2.634230	 2.213300	 1.872620	-2.847487	 0.589215	 7.114655	 4.837365	 94.513020	 86.094350	 170.623200	-53.684180	 72.142940	 71.754230	-6.687654	-11.514930	 18.696390	-28.973380	 0.983467	 9.493824	 6.437017	 35.671460	-0.771858	 2.830251	 35.756010	-7.813440	-2.350882	 35.473990	 5.254307
